<?xml version="1.0" standalone="no"?>
<!DOCTYPE svg PUBLIC "-//W3C//DTD SVG 20010904//EN"
 "http://www.w3.org/TR/2001/REC-SVG-20010904/DTD/svg10.dtd">
<svg version="1.0" xmlns="http://www.w3.org/2000/svg"
 width="300.000000pt" height="300.000000pt" viewBox="0 0 300.000000 300.000000"
 preserveAspectRatio="xMidYMid meet">
<metadata>
Created by potrace 1.10, written by Peter Selinger 2001-2011
</metadata>
<g transform="translate(0.000000,300.000000) scale(0.100000,-0.100000)"
fill="#000000" stroke="none">
<path d="M1520 2554 c-70 -30 -96 -58 -113 -126 -10 -35 -19 -81 -21 -103 -2
-22 -9 -60 -14 -85 -33 -145 -34 -160 -17 -186 9 -14 15 -27 13 -29 -2 -1 -50
-9 -107 -18 -74 -10 -106 -19 -113 -31 -5 -9 -22 -16 -38 -16 -23 0 -30 -5
-30 -19 0 -11 5 -23 10 -26 27 -16 -4 -20 -169 -20 -99 0 -182 -2 -184 -5 -3
-3 -1 -30 4 -60 5 -30 11 -71 14 -90 3 -19 7 -51 10 -70 l6 -35 122 5 c74 3
121 9 119 15 -4 16 -46 23 -119 20 -91 -3 -99 2 -107 72 -4 32 -9 65 -11 73
-10 36 10 42 154 49 78 3 141 5 141 5 0 -1 -6 -17 -14 -35 -7 -19 -16 -74 -19
-124 -5 -69 -16 -117 -46 -205 -36 -104 -43 -115 -62 -112 -13 2 -47 1 -76 -3
-44 -5 -53 -10 -49 -23 3 -9 8 -37 11 -62 3 -25 11 -72 17 -105 14 -75 12
-133 -4 -153 -7 -8 -14 -29 -14 -46 -2 -49 -13 -111 -29 -163 -8 -26 -15 -58
-15 -71 0 -13 -9 -35 -21 -51 -54 -73 -43 -177 25 -246 45 -44 119 -76 109
-46 -4 12 -1 12 11 -3 37 -46 160 11 202 94 62 120 -11 269 -143 293 -49 10
-42 -17 10 -37 75 -28 127 -95 127 -163 0 -35 -31 -103 -56 -124 -10 -10 -37
-27 -58 -39 -42 -23 -64 -13 -46 20 7 13 -1 25 -36 54 -24 20 -44 44 -44 53 0
14 4 12 21 -6 30 -32 46 -14 32 36 -18 63 -11 203 12 240 11 18 23 33 27 33 4
0 8 9 8 20 0 11 9 28 20 37 11 10 20 26 20 36 0 19 19 60 57 120 l23 37 70
-35 c77 -39 75 -27 30 -130 -11 -27 -19 -59 -16 -71 3 -12 65 -79 138 -149
l132 -127 18 35 c23 45 22 45 105 57 39 5 77 12 86 16 12 4 21 -4 34 -33 10
-21 18 -39 19 -41 1 -2 42 36 91 85 48 49 116 106 150 128 35 22 63 43 63 46
0 3 -16 31 -35 63 -52 86 -66 138 -72 261 -5 104 -4 115 25 199 38 108 47 120
57 69 3 -21 22 -72 40 -113 19 -41 43 -113 55 -160 12 -47 41 -123 65 -170 40
-80 95 -248 95 -290 0 -15 -8 -19 -37 -22 -36 -3 -38 -5 -41 -39 -2 -22 2 -40
11 -48 13 -10 13 -18 1 -59 -8 -25 -12 -53 -9 -61 3 -8 0 -18 -6 -22 -17 -10
-19 -50 -2 -56 7 -3 11 -9 8 -13 -14 -22 17 -16 66 13 63 38 95 88 105 164 6
52 7 53 40 53 18 0 35 4 39 9 8 14 -6 91 -17 91 -6 0 -7 -16 -3 -40 9 -51 -9
-53 -23 -2 l-10 37 -1 -42 c-1 -24 -5 -43 -11 -43 -5 0 -9 37 -9 89 1 48 -1
97 -4 107 -3 10 -13 84 -22 164 -17 166 -37 250 -77 335 -15 33 -28 69 -28 80
0 12 -13 64 -30 115 -21 67 -30 116 -30 165 0 52 -5 78 -20 103 -11 17 -24 32
-29 32 -5 0 -11 8 -13 18 -7 25 -93 82 -123 82 -13 0 -27 5 -30 10 -4 6 -26
10 -51 9 -24 -2 -46 0 -49 3 -5 5 9 85 21 118 5 13 7 12 15 -2 5 -10 54 -49
107 -87 106 -76 266 -233 356 -350 138 -180 246 -408 306 -646 32 -128 31
-129 -44 -143 -115 -22 -111 -24 -141 103 -34 143 -123 355 -182 433 -44 58
-37 26 21 -90 62 -126 127 -315 147 -426 l13 -74 35 6 c20 3 78 11 129 17 76
10 91 15 87 28 -2 9 -11 50 -20 92 -69 340 -244 662 -495 908 -90 89 -266 227
-312 245 -33 12 -50 51 -73 162 -23 118 -44 172 -78 211 -53 61 -118 77 -187
47z m100 -36 c-1 -7 -7 -24 -14 -37 l-14 -25 -16 32 c-21 41 -21 42 14 42 18
0 30 -5 30 -12z m-51 -34 c6 -14 11 -31 11 -39 0 -8 5 -15 10 -15 6 0 10 6 10
13 0 6 10 25 23 41 l23 28 28 -24 c25 -21 28 -28 22 -64 -11 -62 -18 -68 -60
-54 -20 6 -36 16 -36 21 0 5 -18 0 -41 -11 -23 -12 -42 -20 -43 -18 -5 6 -28
93 -29 112 -2 21 37 48 58 40 7 -3 17 -16 24 -30z m-100 -59 c12 -31 21 -70
21 -87 0 -30 0 -30 23 -14 12 9 36 24 54 33 30 15 33 15 66 -6 54 -33 95 -85
134 -170 36 -78 47 -151 25 -173 -6 -6 -37 -15 -69 -19 -48 -6 -63 -13 -85
-40 -31 -36 -47 -36 -21 0 18 26 70 51 108 51 38 0 68 35 61 72 -11 57 -95
216 -125 237 -61 44 -76 44 -130 1 -43 -34 -53 -50 -85 -132 -50 -129 -47
-178 12 -178 15 0 38 -14 58 -36 47 -49 43 -64 -6 -20 -22 20 -49 36 -60 36
-26 0 -70 43 -70 68 0 28 64 185 90 222 17 23 20 34 11 43 -6 6 -11 19 -11 29
0 10 -9 44 -20 75 -23 67 -23 63 -11 63 5 0 19 -25 30 -55z m250 -59 c-7 -32
-16 -53 -21 -48 -4 4 -1 32 8 61 20 68 27 61 13 -13z m-298 -158 c-43 -97 -47
-86 -15 42 8 30 14 60 14 66 0 7 5 25 12 41 l11 28 10 -42 c9 -38 6 -50 -32
-135z m335 37 c-7 -24 -36 56 -29 82 6 26 7 25 20 -22 7 -27 11 -54 9 -60z
m-126 75 c11 -8 12 -12 3 -18 -7 -4 -10 -17 -6 -31 5 -20 10 -22 40 -18 40 7
42 -13 2 -24 -32 -9 -119 -11 -158 -3 -41 9 -35 28 10 28 31 1 34 3 33 31 0
17 4 33 10 37 15 11 48 9 66 -2z m74 -132 c9 -12 16 -34 16 -48 0 -18 3 -21 9
-11 6 10 12 3 21 -24 9 -28 9 -40 1 -48 -14 -14 -31 6 -31 35 0 13 -7 11 -32
-12 -17 -16 -34 -28 -36 -25 -2 2 -13 -5 -25 -16 -25 -23 -40 -24 -70 -4 -13
8 -32 16 -42 18 -11 1 -26 6 -32 10 -9 6 -13 1 -13 -13 0 -13 -5 -20 -12 -18
-16 6 -24 78 -9 78 6 0 11 10 11 23 0 49 55 87 86 58 9 -9 111 2 122 14 10 10
21 5 36 -17z m6 -147 c0 -25 -5 -31 -30 -36 -39 -9 -90 -51 -90 -75 0 -34 -19
-31 -36 6 -9 19 -28 42 -40 51 -13 8 -24 24 -24 34 0 18 1 18 33 -1 55 -34
141 -19 167 30 15 28 20 25 20 -9z m-319 -48 c8 -9 47 -37 86 -63 l73 -47 -34
-16 c-31 -14 -38 -14 -85 1 -45 14 -52 20 -61 51 -12 45 -13 91 -1 91 5 0 15
-8 22 -17z m-68 -122 c10 -21 21 -27 57 -31 25 -3 50 -9 56 -13 14 -8 195 76
215 99 18 22 77 50 123 58 35 7 38 6 31 -11 -5 -10 -9 -35 -10 -57 -1 -33 -9
-45 -56 -86 -36 -33 -61 -47 -74 -44 -11 2 -63 8 -115 14 -52 5 -104 11 -115
12 -31 4 -23 -53 20 -151 20 -46 34 -88 32 -96 -3 -7 0 -19 6 -26 7 -8 -1 -3
-17 11 -16 14 -45 50 -64 80 -20 30 -43 61 -51 68 -14 11 -13 12 5 3 12 -6 36
-35 53 -65 16 -30 35 -58 42 -62 14 -9 12 -3 -29 68 -22 38 -47 65 -76 82 -37
22 -44 31 -55 78 -7 29 -14 87 -17 128 l-4 75 15 -54 c8 -30 21 -66 28 -80z
m27 67 c15 -63 21 -69 80 -87 l35 -10 -32 4 c-88 13 -91 15 -107 58 -27 75
-28 97 -9 97 14 0 22 -15 33 -62z m-110 0 c0 -29 7 -80 15 -113 18 -77 19 -72
-9 -77 -22 -4 -25 -1 -32 35 -3 22 -17 72 -30 111 -13 38 -21 73 -17 77 5 4
19 9 33 12 14 2 28 5 33 6 4 0 7 -23 7 -51z m49 -147 c10 -32 7 -60 -3 -30
-18 54 -26 103 -24 164 l1 70 8 -85 c4 -47 12 -100 18 -119z m589 147 c0 -24
-7 -64 -15 -90 -12 -40 -19 -48 -39 -48 -30 0 -43 -28 -21 -45 15 -11 13 -15
-14 -41 -17 -16 -40 -46 -52 -67 -12 -22 -34 -45 -48 -53 -26 -13 -27 -12 -43
31 -21 54 -72 100 -128 116 -46 13 -85 39 -58 39 8 -1 64 -7 124 -14 l110 -14
63 56 c47 43 65 66 69 92 10 55 22 80 38 80 11 0 15 -11 14 -42z m33 29 c-1
-4 -1 -14 -1 -22 0 -8 -4 -15 -10 -15 -5 0 -10 12 -10 26 0 14 5 24 11 22 6
-2 10 -7 10 -11z m60 -7 c5 0 0 -17 -12 -39 -11 -21 -26 -67 -33 -102 l-13
-63 -44 3 c-48 3 -59 7 -59 22 0 5 24 9 53 9 30 0 47 4 39 8 -19 12 25 175 46
167 7 -3 18 -5 23 -5z m33 -78 c-35 -33 -38 -33 -23 2 7 15 20 26 32 26 17 0
16 -3 -9 -28z m68 -15 c26 -22 48 -79 48 -125 0 -23 -2 -22 -42 13 -24 20 -55
39 -71 42 -15 3 -30 10 -33 15 -6 9 53 78 65 78 4 -1 18 -11 33 -23z m-934
-14 c35 -52 35 -53 -4 -51 -28 1 -41 -4 -52 -20 -21 -32 -35 -27 -27 11 8 34
41 87 55 87 5 0 17 -12 28 -27z m870 -82 c46 -24 93 -71 70 -71 -9 0 -21 7
-28 15 -7 8 -16 12 -21 9 -5 -3 -26 -2 -46 2 -31 6 -34 8 -18 14 11 4 28 4 37
-1 26 -14 35 -10 14 6 -11 8 -32 15 -48 15 -20 0 -26 4 -22 15 8 20 17 19 62
-4z m-828 -1 c0 -5 -11 -10 -24 -10 -14 0 -39 -12 -56 -26 -33 -28 -53 -26
-29 2 26 32 109 57 109 34z m313 -117 l32 -78 0 -295 c1 -162 2 -302 3 -311 1
-8 23 -42 48 -75 59 -75 97 -140 92 -156 -2 -6 -19 14 -37 45 -18 31 -53 82
-78 113 l-46 56 6 237 c8 298 0 381 -47 483 -20 42 -36 85 -36 95 1 24 20 -11
63 -114z m-310 86 c19 -1 -26 -18 -50 -18 -13 -1 -23 3 -23 8 0 11 30 20 48
15 8 -2 19 -4 25 -5z m127 -13 c0 -12 -40 -26 -76 -26 -20 0 -17 28 4 33 38
10 72 7 72 -7z m600 -1 c0 -10 -10 -15 -30 -15 -29 0 -38 9 -23 23 13 13 53 7
53 -8z m-333 -56 c12 -12 27 -35 34 -52 7 -18 19 -40 27 -49 13 -16 12 -23 -7
-69 -20 -46 -64 -98 -83 -99 -5 0 -8 39 -8 88 0 86 -4 97 -57 220 -8 19 64
-12 94 -39z m403 9 c0 -24 9 -83 20 -132 24 -107 24 -112 6 -97 -21 17 -56
136 -56 188 0 25 -5 43 -11 43 -7 0 -9 -11 -5 -30 3 -16 1 -30 -4 -30 -13 0
-22 35 -14 64 5 22 13 27 57 35 4 0 7 -18 7 -41z m-863 -43 c-7 -80 -35 -195
-48 -195 -18 0 -18 25 2 132 26 139 26 138 40 138 9 0 10 -20 6 -75z m69 1
c-7 -83 -28 -161 -50 -191 -24 -34 -30 -8 -12 52 10 31 21 92 23 135 5 69 8
78 26 78 19 0 19 -4 13 -74z m445 -8 c10 -21 19 -41 19 -45 -1 -4 -10 10 -22
32 -11 22 -32 53 -47 70 l-26 30 28 -25 c16 -14 38 -42 48 -62z m414 24 c3
-26 12 -80 21 -120 9 -40 13 -76 10 -79 -20 -20 -51 75 -62 189 -6 60 -5 68 9
62 10 -4 18 -23 22 -52z m-692 33 c10 -7 28 -31 39 -52 11 -21 40 -59 64 -84
l45 -45 -2 -138 c0 -76 -4 -135 -7 -132 -12 13 -42 -29 -42 -59 0 -21 -9 -40
-29 -59 -16 -15 -37 -49 -47 -74 -20 -55 -103 -187 -111 -179 -3 3 15 39 39
79 24 40 52 94 61 120 10 25 29 53 41 62 14 8 26 29 30 49 4 19 15 42 26 52
10 9 16 24 13 33 -4 9 -2 13 4 9 11 -7 -19 85 -55 166 -11 24 -33 53 -49 65
-23 16 -113 164 -113 186 0 4 25 9 65 14 6 1 18 -5 28 -13z m540 9 c13 -14 -3
-20 -42 -16 -23 2 -41 8 -41 13 0 10 73 12 83 3z m-862 -149 c-33 -87 -43 -82
-12 6 10 31 22 75 27 100 l9 44 3 -35 c2 -22 -9 -67 -27 -115z m254 62 c23
-49 57 -99 82 -124 24 -22 43 -47 43 -55 -1 -7 -8 -1 -16 15 -8 15 -18 27 -22
27 -21 0 -73 67 -106 135 -39 82 -40 85 -28 85 4 -1 25 -38 47 -83z m474 29
c-34 -49 -53 -63 -25 -21 9 14 23 36 32 50 9 14 19 24 21 21 3 -3 -10 -25 -28
-50z m341 14 c0 -23 14 -71 34 -117 19 -42 32 -82 29 -87 -3 -5 -11 1 -17 13
-7 12 -15 18 -20 14 -4 -4 -4 -1 -1 8 3 8 -6 41 -20 72 -25 58 -34 137 -15
137 6 0 10 -18 10 -40z m-220 5 c0 -3 -30 -41 -67 -85 -58 -70 -74 -82 -117
-95 -27 -8 -53 -15 -58 -15 -4 0 2 20 14 45 14 28 32 48 50 56 16 6 43 31 60
55 29 40 35 44 75 44 24 0 43 -2 43 -5z m-37 -93 c-53 -74 -73 -95 -73 -74 0
11 122 164 127 159 2 -3 -22 -41 -54 -85z m-603 38 c0 -6 14 -32 31 -60 24
-40 29 -56 24 -81 l-7 -31 -32 54 c-32 52 -51 148 -27 133 6 -3 11 -10 11 -15z
m651 -118 c-17 -49 -31 -99 -31 -112 0 -16 -4 -20 -15 -16 -8 3 -15 2 -15 -2
0 -4 -20 -6 -45 -4 -43 4 -45 5 -45 36 0 25 10 38 50 71 27 22 52 48 55 57 10
27 68 84 72 71 2 -6 -10 -52 -26 -101z m-635 -131 c10 -75 -25 -271 -48 -271
-4 0 -8 4 -8 10 0 15 -61 43 -92 42 -16 0 -28 0 -28 1 0 1 9 25 20 53 10 29
26 80 34 115 8 35 29 95 47 133 l33 70 18 -53 c10 -30 20 -75 24 -100z m69 71
c-14 -58 -42 -132 -50 -132 -2 0 5 25 15 55 10 30 22 75 25 100 4 24 11 43 15
40 5 -3 2 -31 -5 -63z m60 6 l19 -36 -27 -66 c-15 -37 -27 -77 -27 -90 0 -12
-10 -31 -21 -42 -28 -25 -82 -104 -76 -110 3 -3 14 10 25 28 12 18 33 44 49
58 l28 25 -26 -30 c-40 -46 -88 -121 -111 -171 -11 -25 -22 -43 -25 -41 -2 3
5 24 17 46 11 23 18 46 15 50 -3 5 3 29 14 53 10 24 22 68 26 98 4 29 20 80
36 114 16 34 32 83 35 109 8 55 20 57 49 5z m-342 -22 c-10 -46 -29 -43 -24 4
4 43 10 55 22 43 5 -5 6 -26 2 -47z m1070 25 c-3 -10 0 -28 6 -39 7 -13 7 -23
2 -27 -20 -12 -43 70 -25 88 12 11 22 -2 17 -22z m-435 -39 l3 -52 -30 0 c-29
0 -31 -2 -31 -40 0 -38 2 -40 33 -42 l32 -1 -32 -4 c-30 -4 -33 -7 -33 -39 0
-31 2 -34 31 -34 28 0 30 -2 24 -28 -4 -22 8 -58 55 -156 l60 -128 -52 -57
-53 -57 -32 54 c-18 30 -51 76 -75 104 l-42 50 2 194 1 194 28 26 c15 14 45
33 67 44 31 15 35 19 20 23 -17 5 -17 6 1 4 17 -2 20 -11 23 -55z m23 -55 c-8
-8 -11 4 -11 39 0 66 14 80 18 19 2 -26 -2 -53 -7 -58z m-597 72 c-1 -8 -4
-24 -8 -37 -6 -19 -4 -25 12 -29 20 -5 20 -5 0 -76 -20 -73 -46 -124 -73 -147
-13 -11 -14 -10 -9 6 3 10 -6 2 -21 -20 -15 -21 -29 -53 -31 -70 -1 -17 -3
-32 -3 -33 -1 -1 -21 5 -46 14 -50 16 -53 26 -28 81 9 20 17 62 18 92 1 41 11
75 41 135 27 55 40 73 43 60 3 -20 18 -35 34 -35 4 0 14 15 22 33 7 17 17 35
21 40 11 11 29 2 28 -14z m930 -15 c24 -51 12 -55 -14 -5 -11 23 -17 41 -12
41 5 0 16 -16 26 -36z m-904 -14 c-7 -16 -16 -27 -21 -24 -5 3 -2 19 7 35 20
39 31 30 14 -11z m1025 10 c9 -18 15 -56 15 -101 0 -64 3 -75 30 -109 30 -37
30 -39 29 -156 l-1 -119 -15 49 c-11 37 -17 46 -25 35 -7 -10 -8 -5 -4 16 5
20 3 25 -3 16 -17 -26 -101 151 -101 214 0 17 2 17 10 5 14 -21 12 -9 -5 40
-8 24 -18 57 -20 73 l-6 29 30 -21 c29 -21 30 -21 40 -3 5 10 7 28 4 40 -8 31
4 27 22 -8z m34 -14 c18 -41 61 -196 61 -220 0 -5 -15 5 -34 23 -33 32 -34 37
-38 120 -3 47 -8 94 -12 104 -5 9 -6 17 -3 17 4 0 15 -20 26 -44z m-750 -21
c1 -5 -3 -3 -9 5 -7 12 -10 11 -15 -5 -4 -11 -15 -39 -26 -63 -10 -23 -20 -55
-20 -70 -2 -25 -2 -25 -6 -4 -4 22 29 122 49 148 5 6 6 20 2 30 -3 11 1 9 10
-6 8 -14 15 -29 15 -35z m-540 -86 c-22 -57 -43 -106 -45 -108 -2 -2 -4 41 -4
96 l0 101 43 14 c23 7 43 11 45 7 1 -3 -16 -52 -39 -110z m555 -7 c5 -9 1 -21
-13 -36 -12 -12 -21 -34 -21 -47 0 -16 -10 -33 -28 -46 -16 -12 -33 -38 -40
-61 -7 -22 -30 -71 -52 -108 -22 -38 -42 -73 -44 -79 -2 -5 -16 2 -31 16 l-27
26 32 64 c34 67 94 152 129 183 11 11 21 28 21 40 0 11 10 45 22 75 l23 54 10
-34 c5 -19 14 -40 19 -47z m403 53 c3 -12 -14 -42 -20 -35 -3 3 -8 16 -12 28
-6 19 -4 23 11 20 9 -1 19 -7 21 -13z m-167 -15 c0 -16 -7 -20 -30 -20 -23 0
-30 4 -30 20 0 16 7 20 30 20 23 0 30 -4 30 -20z m128 -8 c3 -21 1 -22 -55
-20 -52 3 -58 5 -61 26 -3 22 -1 23 55 20 52 -3 58 -6 61 -26z m36 -77 c-10
-25 -34 -26 -34 -1 0 12 3 26 7 29 10 11 32 -13 27 -28z m-173 15 c5 0 9 -7 9
-15 0 -9 -9 -15 -25 -15 -19 0 -25 5 -25 21 0 15 4 19 16 15 9 -3 20 -6 25 -6z
m127 -17 c-2 -14 -15 -19 -56 -21 -47 -3 -52 -1 -52 17 0 19 6 21 56 21 47 0
55 -3 52 -17z m-927 -86 c-11 -24 -21 -49 -21 -57 0 -7 -3 -11 -6 -8 -7 7 16
88 29 106 20 26 19 2 -2 -41z m881 -140 c31 -59 53 -109 48 -112 -4 -2 -34 53
-68 123 -48 101 -59 133 -54 157 6 28 7 27 12 -15 3 -26 29 -89 62 -153z m104
133 c3 -23 16 -65 30 -91 13 -27 24 -53 24 -58 0 -11 -82 -61 -91 -55 -4 2
-10 16 -13 30 -4 15 -18 41 -31 58 -27 36 -55 100 -55 127 0 23 10 29 60 33
22 2 44 6 47 10 12 12 24 -10 29 -54z m-390 -79 c-1 -81 2 -102 17 -118 31
-36 22 -42 -52 -36 -61 5 -73 3 -101 -17 -17 -12 -33 -20 -36 -17 -3 3 15 34
39 70 25 36 51 82 57 104 10 28 66 111 76 113 1 0 1 -44 0 -99z m798 -48 c5
-105 4 -123 -9 -123 -13 0 -15 22 -15 132 0 76 4 128 9 123 5 -6 11 -65 15
-132z m-1360 14 c71 -40 54 -62 -24 -31 -27 11 -40 22 -40 35 0 25 16 24 64
-4z m-1 -49 c29 -11 37 -28 12 -28 -29 0 -87 29 -80 40 4 6 14 8 24 5 9 -4 28
-12 44 -17z m1051 -24 c4 -9 5 -17 4 -18 -36 -16 -159 -111 -208 -161 -35 -36
-68 -65 -72 -65 -21 0 -3 33 43 84 49 53 201 176 219 176 4 0 11 -7 14 -16z
m-1050 -20 l20 -14 -21 0 c-28 0 -73 20 -73 33 0 12 47 0 74 -19z m357 -75
l39 -31 36 31 c34 30 37 31 107 25 40 -4 74 -8 76 -10 2 -2 11 2 19 9 13 11
14 9 2 -13 -8 -16 -15 -20 -18 -12 -2 8 -8 10 -15 4 -15 -12 -138 -21 -131
-10 3 4 26 9 52 10 l47 1 -44 4 c-35 3 -51 -1 -82 -23 -31 -21 -37 -30 -28
-41 10 -11 17 -9 45 12 24 18 45 25 78 25 29 0 46 -4 46 -12 0 -6 7 -3 15 8
26 34 16 6 -16 -46 -35 -57 -52 -69 -20 -14 12 19 21 37 21 40 0 2 -24 4 -53
4 -40 0 -58 -5 -71 -19 -14 -15 -14 -20 -3 -29 10 -9 18 -8 33 3 18 13 64 21
64 10 0 -10 -55 -95 -62 -95 -4 0 -59 51 -122 113 -82 79 -116 119 -116 135 0
21 2 20 31 -13 17 -19 49 -49 70 -66z m-396 55 c33 -15 33 -16 17 -44 -9 -16
-30 -32 -50 -38 -32 -10 -34 -10 -27 11 4 12 9 37 12 55 6 37 5 37 48 16z
m1399 -40 c17 -7 22 -34 7 -34 -21 0 -41 13 -41 26 0 15 10 17 34 8z m-671
-53 c15 -27 27 -51 27 -54 0 -3 -12 -4 -27 -3 -16 2 -47 -2 -70 -9 -24 -7 -43
-11 -43 -8 0 11 72 123 78 123 4 0 19 -22 35 -49z m679 -66 c-2 -39 -10 -80
-18 -92 -12 -20 -12 -22 1 -17 10 4 15 0 15 -15 0 -19 -10 -26 -32 -22 -5 0
-8 -4 -8 -9 0 -6 -7 -10 -15 -10 -8 0 -15 -4 -15 -10 0 -5 -4 -10 -10 -10 -17
0 -11 18 15 44 25 25 34 66 14 66 -5 0 -8 -4 -5 -9 7 -11 -21 -48 -30 -39 -4
4 5 34 20 67 14 32 26 70 26 85 0 28 9 33 28 14 9 -9 12 -9 12 0 0 6 -8 16
-17 22 -16 10 -16 10 2 8 18 -3 20 -10 17 -73z m-1413 52 c6 -8 10 -45 9 -83
0 -38 2 -80 7 -93 13 -43 -19 -18 -38 30 -17 41 -17 42 -11 9 3 -19 5 -54 5
-78 -2 -34 4 -48 28 -74 30 -32 35 -52 7 -29 -11 9 -15 9 -18 -1 -3 -8 -12 -2
-23 16 -14 21 -21 57 -26 144 -4 63 -5 123 -1 131 14 41 40 52 61 28z m581 -4
c-19 -3 -39 -9 -44 -14 -16 -15 -29 -10 -16 6 8 9 28 14 54 13 40 -1 40 -1 6
-5z m735 -92 c-8 -17 -17 -31 -19 -31 -2 0 -6 14 -8 31 -4 24 -1 32 16 39 27
10 31 -2 11 -39z m-1403 -69 c4 -81 10 -116 23 -136 10 -15 15 -29 12 -32 -10
-11 -65 86 -72 126 -7 41 11 150 24 150 5 0 10 -49 13 -108z m1479 -70 c-5 -9
-19 -26 -31 -37 l-22 -20 18 38 c10 20 24 37 31 37 10 0 11 -5 4 -18z"/>
<path d="M1160 1350 c0 -13 42 -40 63 -40 10 0 17 5 15 12 -5 14 -78 41 -78
28z"/>
<path d="M759 2396 c-3 -3 -26 -6 -52 -7 -26 -2 -47 -8 -47 -13 1 -6 9 -63 18
-126 l18 -115 59 5 c138 12 368 2 469 -19 55 -12 101 -20 103 -18 11 12 -43
38 -112 53 -59 13 -134 18 -283 20 -112 1 -205 4 -207 6 -5 4 -11 43 -20 114
-5 41 -3 53 9 57 9 4 67 9 128 13 120 7 315 -7 431 -32 45 -9 75 -11 85 -5 15
8 14 11 -8 19 -66 25 -226 44 -401 48 -102 2 -188 2 -190 0z"/>
<path d="M465 2342 c-55 -8 -101 -16 -102 -16 -1 -1 0 -12 3 -23 5 -20 11 -21
53 -16 l48 5 6 -55 c4 -30 10 -62 13 -71 5 -12 0 -16 -22 -16 -53 0 -75 -11
-72 -34 2 -11 8 -20 14 -19 6 1 58 7 117 14 104 12 107 13 107 37 0 24 -2 25
-49 19 l-49 -6 -7 52 c-3 29 -9 59 -11 69 -4 13 5 17 46 23 40 5 50 10 46 22
-3 8 -6 19 -6 24 0 11 -10 11 -135 -9z"/>
<path d="M414 2072 c-8 -5 -7 -37 4 -119 15 -108 17 -113 40 -113 23 0 24 2
17 49 l-7 49 94 14 c83 12 93 16 90 33 -2 11 -5 21 -6 23 -2 2 -125 -13 -170
-21 -6 -1 -14 19 -19 46 -9 45 -19 55 -43 39z"/>
<path d="M633 1842 c-8 -5 -9 -19 -3 -47 5 -21 7 -42 5 -45 -4 -6 -53 -12
-110 -14 -28 -1 -30 1 -33 42 -3 37 -6 42 -28 42 -27 0 -29 -8 -15 -91 5 -30
12 -76 16 -102 6 -44 8 -47 28 -41 30 9 29 6 18 53 -11 49 -13 47 77 56 l62 6
0 -46 c0 -41 2 -45 25 -45 17 0 25 6 25 18 0 18 -18 160 -26 200 -4 22 -19 28
-41 14z"/>
<path d="M666 1538 c3 -29 10 -71 15 -93 9 -46 11 -42 -20 -47 -27 -3 -27 -4
-37 105 -7 69 -18 85 -48 74 -11 -4 -12 -15 -6 -44 4 -21 11 -64 15 -95 6 -57
6 -58 -18 -58 -23 0 -25 5 -31 63 -13 119 -16 128 -40 121 -11 -4 -22 -8 -24
-9 -1 -1 2 -24 7 -51 5 -27 13 -70 16 -96 11 -81 22 -85 172 -57 65 13 69 23
52 145 -12 88 -14 94 -36 94 -23 0 -23 -2 -17 -52z"/>
<path d="M1915 1400 c10 -33 98 -163 113 -168 10 -3 10 3 0 25 -17 39 -82 136
-103 153 -16 14 -17 13 -10 -10z"/>
<path d="M708 1330 c-10 -6 -14 -18 -11 -29 3 -13 -7 -34 -27 -60 -29 -36 -34
-38 -48 -25 -8 9 -25 22 -38 31 -14 9 -24 25 -24 39 0 19 -5 24 -25 24 -17 0
-25 -5 -25 -17 0 -39 13 -60 58 -93 78 -58 79 -66 12 -75 -46 -6 -50 -9 -44
-28 9 -31 7 -30 66 -18 29 5 81 13 116 17 50 5 62 9 58 21 -3 8 -6 19 -6 25 0
6 -18 7 -50 3 -63 -9 -64 0 -9 72 31 42 39 60 36 85 -4 35 -14 42 -39 28z"/>
<path d="M2144 914 c12 -83 5 -90 -100 -99 -70 -7 -75 -6 -94 16 l-20 24 2
-40 c3 -39 4 -40 38 -39 37 1 122 11 181 22 l36 7 -19 80 c-23 100 -37 116
-24 29z"/>
<path d="M2643 823 c-19 -3 -33 -10 -33 -18 0 -8 7 -11 19 -8 13 3 20 -2 24
-18 7 -27 1 -39 -19 -39 -8 0 -14 -5 -14 -11 0 -7 15 -9 43 -5 23 3 45 5 50 5
17 2 5 21 -13 21 -11 0 -20 4 -20 9 0 5 -3 16 -6 24 -3 10 2 18 15 22 12 3 21
11 21 16 0 9 -7 9 -67 2z"/>
<path d="M2528 803 c-27 -7 -23 -103 4 -103 6 0 8 9 5 20 -4 17 1 21 34 26 52
9 51 28 -1 21 -22 -3 -40 -2 -40 3 0 10 26 20 51 20 10 0 19 5 19 10 0 10 -40
12 -72 3z"/>
<path d="M2446 790 c-22 -3 -42 -11 -44 -19 -3 -10 1 -12 16 -9 16 5 21 0 24
-23 4 -23 1 -29 -14 -29 -10 0 -18 -6 -18 -14 0 -11 9 -13 38 -10 52 8 62 12
62 25 0 6 -9 9 -20 6 -11 -3 -20 -2 -20 1 0 4 -3 17 -6 30 -5 16 -2 22 9 22
17 0 32 16 20 22 -5 2 -26 1 -47 -2z"/>
<path d="M2060 731 c-18 -5 -25 -14 -25 -31 0 -22 4 -25 37 -25 51 0 57 -12 9
-20 -43 -7 -56 -25 -18 -25 50 0 68 11 65 39 -3 23 -7 26 -40 24 -48 -3 -50
13 -3 21 19 4 35 11 35 16 0 11 -23 11 -60 1z"/>
<path d="M1966 721 c-22 -3 -42 -12 -44 -20 -3 -10 1 -12 16 -9 15 4 22 0 26
-16 9 -33 7 -36 -14 -36 -11 0 -20 -6 -20 -14 0 -11 9 -13 38 -10 52 8 62 12
62 25 0 6 -9 9 -20 6 -13 -3 -20 0 -20 8 0 7 -3 20 -6 28 -3 9 3 16 15 20 19
5 31 29 14 26 -5 -1 -26 -5 -47 -8z"/>
<path d="M1847 703 c-30 -3 -37 -8 -33 -19 3 -9 6 -31 6 -50 0 -25 4 -34 16
-34 11 0 15 6 11 20 -4 16 0 20 17 20 12 0 31 6 42 14 15 12 17 19 8 32 -12
21 -16 22 -67 17z"/>
</g>
</svg>
